<svg width="211" height="40" viewBox="0 0 211 40" fill="none" xmlns="http://www.w3.org/2000/svg">
<path d="M30.0282 17.2104C28.8998 18.3456 28.336 19.9246 28.4899 21.5178L28.4635 21.4913C28.6217 23.3661 27.9455 25.2154 26.615 26.5458C25.2846 27.8762 23.4354 28.5525 21.5605 28.3942L21.587 28.4207C19.317 28.2094 17.1583 29.4442 16.1895 31.5079C15.2208 33.5717 15.6501 36.0213 17.2628 37.6326C18.8756 39.2439 21.3256 39.671 23.3885 38.7004C25.4514 37.7298 26.6842 35.5699 26.4708 33.3001L26.4988 33.3266C26.3405 31.4518 27.0168 29.6025 28.3472 28.2721C29.6776 26.9417 31.5269 26.2654 33.4017 26.4236L33.3738 26.3972C35.8686 26.6215 38.19 25.1004 38.9802 22.7234C39.7704 20.3464 38.8218 17.7382 36.6892 16.4242C34.5566 15.1102 31.8004 15.4358 30.0326 17.2104H30.0282Z" fill="#5454D4"/>
<path d="M19.1791 24.953L19.1511 24.9266C20.7453 25.0872 22.3274 24.5235 23.4608 23.3909C24.5942 22.2584 25.1591 20.6768 24.9997 19.0825L25.0276 19.1089C24.8694 17.2341 25.5456 15.3848 26.8761 14.0544C28.2065 12.724 30.0557 12.0477 31.9306 12.206L31.9026 12.1795C34.1728 12.3927 36.3329 11.1593 37.3031 9.09585C38.2733 7.03239 37.8453 4.5821 36.233 2.96977C34.6206 1.35744 32.1703 0.92941 30.1069 1.89963C28.0434 2.86985 26.81 5.02992 27.0232 7.3001L26.9967 7.27216C27.1555 9.14712 26.4794 10.9967 25.1489 12.3272C23.8183 13.6578 21.9688 14.3339 20.0938 14.1751L20.1203 14.203C18.5261 14.0424 16.944 14.6061 15.8106 15.7387C14.6772 16.8712 14.1123 18.4529 14.2717 20.0472L14.2453 20.0207C14.403 21.8954 13.7266 23.7443 12.3963 25.0746C11.066 26.4049 9.21703 27.0814 7.34233 26.9236L7.3688 26.9501C5.09861 26.7369 2.93854 27.9703 1.96832 30.0338C0.998105 32.0972 1.42614 34.5475 3.03846 36.1598C4.65079 37.7722 7.10109 38.2002 9.16455 37.23C11.228 36.2598 12.4614 34.0997 12.2482 31.8295L12.2762 31.856C12.1179 29.9812 12.7942 28.1319 14.1246 26.8015C15.455 25.4711 17.3043 24.7948 19.1791 24.953Z" fill="#FF7143"/>
<path d="M9.32353 22.0016C10.452 20.8665 11.0155 19.2873 10.8603 17.6942L10.8882 17.7207C10.7298 15.8453 11.4065 13.9955 12.7376 12.665C14.0687 11.3344 15.9188 10.6586 17.7941 10.8178L17.7662 10.7913C20.0356 11.0039 22.1946 9.7706 23.1642 7.7078C24.1339 5.64499 23.7058 3.19566 22.0941 1.58393C20.4824 -0.0277992 18.0331 -0.455804 15.9703 0.513824C13.9074 1.48345 12.6742 3.64248 12.8868 5.91187L12.8603 5.8854C13.0186 7.76024 12.3423 9.60949 11.0119 10.9399C9.68144 12.2703 7.83218 12.9466 5.95735 12.7883L5.98382 12.8148C3.48912 12.5911 1.16818 14.1127 0.378454 16.4896C-0.411274 18.8666 0.537647 21.4746 2.67022 22.7882C4.8028 24.1019 7.55886 23.7762 9.32647 22.0016H9.32353Z" fill="#5454D4"/>
<path d="M61.544 32.448C59.944 32.448 58.472 32.1707 57.128 31.616C55.784 31.04 54.6213 30.2293 53.64 29.184C52.6587 28.1387 51.9013 26.912 51.368 25.504C50.8347 24.0747 50.568 22.496 50.568 20.768C50.568 19.1467 50.8453 17.664 51.4 16.32C51.9547 14.976 52.7333 13.8133 53.736 12.832C54.7387 11.8293 55.9227 11.0507 57.288 10.496C58.6747 9.94133 60.1893 9.664 61.832 9.664C62.5147 9.664 63.2187 9.728 63.944 9.856C64.6693 9.96267 65.3733 10.144 66.056 10.4C66.7387 10.6347 67.336 10.9333 67.848 11.296C68.2533 11.552 68.5947 11.8187 68.872 12.096C69.1707 12.352 69.3307 12.6507 69.352 12.992C69.3733 13.184 69.3413 13.3973 69.256 13.632C69.1707 13.8453 69.0427 14.0693 68.872 14.304C68.6373 14.6667 68.3813 14.9333 68.104 15.104C67.848 15.2747 67.592 15.36 67.336 15.36C67.1867 15.36 67.0053 15.3067 66.792 15.2C66.5787 15.072 66.2907 14.9013 65.928 14.688C65.6507 14.496 65.288 14.3147 64.84 14.144C64.392 13.9733 63.9013 13.8347 63.368 13.728C62.8347 13.6213 62.28 13.568 61.704 13.568C60.2747 13.568 59.016 13.8667 57.928 14.464C56.84 15.0613 55.9867 15.9147 55.368 17.024C54.7707 18.112 54.472 19.392 54.472 20.864C54.472 22.3787 54.7813 23.712 55.4 24.864C56.0187 26.016 56.8613 26.9227 57.928 27.584C59.016 28.224 60.264 28.544 61.672 28.544C62.1627 28.544 62.6533 28.512 63.144 28.448C63.656 28.384 64.1467 28.288 64.616 28.16C65.1067 28.032 65.5547 27.872 65.96 27.68V22.624H61.416C61.1173 22.624 60.84 22.592 60.584 22.528C60.3493 22.464 60.1573 22.3147 60.008 22.08C59.88 21.8453 59.816 21.4613 59.816 20.928C59.816 20.3733 59.8907 19.9787 60.04 19.744C60.1893 19.5093 60.3813 19.36 60.616 19.296C60.872 19.232 61.1493 19.2 61.448 19.2H67.976C68.5307 19.2 68.936 19.296 69.192 19.488C69.448 19.68 69.6187 19.9253 69.704 20.224C69.7893 20.5013 69.832 20.8213 69.832 21.184V28.64C69.832 29.0667 69.6187 29.504 69.192 29.952C68.7867 30.4 68.2107 30.816 67.464 31.2C66.9733 31.456 66.408 31.68 65.768 31.872C65.1493 32.0427 64.4773 32.1813 63.752 32.288C63.048 32.3947 62.312 32.448 61.544 32.448ZM81.0613 32.512C79.6746 32.512 78.4586 32.288 77.4133 31.84C76.3893 31.392 75.5253 30.784 74.8213 30.016C74.1386 29.2267 73.6159 28.352 73.2533 27.392C72.9119 26.4107 72.7413 25.3973 72.7413 24.352C72.7413 22.816 73.0933 21.4507 73.7973 20.256C74.5013 19.0613 75.4719 18.1227 76.7093 17.44C77.9679 16.7573 79.4079 16.416 81.0293 16.416C82.1813 16.416 83.1946 16.5973 84.0693 16.96C84.9439 17.3227 85.6693 17.8027 86.2453 18.4C86.8426 18.976 87.2906 19.616 87.5893 20.32C87.9093 21.024 88.0693 21.7067 88.0693 22.368C88.0693 23.4987 87.7919 24.32 87.2373 24.832C86.7039 25.344 86.0319 25.6 85.2213 25.6H76.7733C76.7946 26.3253 77.0186 26.9547 77.4453 27.488C77.8933 28.0213 78.4479 28.4373 79.1093 28.736C79.7919 29.0133 80.4853 29.152 81.1892 29.152C81.7226 29.152 82.1919 29.12 82.5973 29.056C83.0239 28.992 83.3866 28.9173 83.6853 28.832C83.9839 28.7253 84.2399 28.6187 84.4533 28.512C84.6879 28.4053 84.9013 28.3093 85.0933 28.224C85.2853 28.1387 85.4666 28.0853 85.6373 28.064C85.8719 28.0427 86.1066 28.096 86.3413 28.224C86.5759 28.352 86.7679 28.576 86.9173 28.896C87.0453 29.1093 87.1306 29.312 87.1733 29.504C87.2373 29.6747 87.2693 29.8453 87.2693 30.016C87.2693 30.4427 87.0133 30.848 86.5013 31.232C85.9893 31.5947 85.2639 31.8933 84.3253 32.128C83.4079 32.384 82.3199 32.512 81.0613 32.512ZM76.7733 23.328H83.3333C83.6959 23.328 83.9733 23.2747 84.1653 23.168C84.3573 23.04 84.4533 22.784 84.4533 22.4C84.4533 21.9093 84.3039 21.472 84.0053 21.088C83.7066 20.6827 83.3013 20.3733 82.7893 20.16C82.2773 19.9253 81.6799 19.808 80.9973 19.808C80.2079 19.808 79.4933 19.968 78.8533 20.288C78.2133 20.5867 77.7013 21.0027 77.3173 21.536C76.9546 22.0693 76.7733 22.6667 76.7733 23.328ZM92.5833 32.288C92.0073 32.288 91.5806 32.192 91.3033 32C91.0473 31.8293 90.8873 31.6053 90.8233 31.328C90.7593 31.0293 90.7273 30.6987 90.7273 30.336V18.368C90.7273 18.0267 90.7593 17.7173 90.8233 17.44C90.8873 17.1627 91.0579 16.9493 91.3353 16.8C91.6126 16.6293 92.0393 16.544 92.6153 16.544C93.1273 16.544 93.5113 16.608 93.7673 16.736C94.0233 16.864 94.1939 17.024 94.2793 17.216C94.3646 17.408 94.4073 17.6 94.4073 17.792C94.4286 17.984 94.4499 18.1333 94.4713 18.24L94.3433 19.264C94.4713 18.9227 94.6846 18.592 94.9833 18.272C95.2819 17.952 95.6446 17.664 96.0713 17.408C96.4979 17.1307 96.9566 16.9173 97.4473 16.768C97.9593 16.5973 98.4819 16.512 99.0153 16.512C100.018 16.512 100.914 16.6933 101.703 17.056C102.493 17.4187 103.165 17.9307 103.719 18.592C104.295 19.2533 104.733 20.0427 105.031 20.96C105.33 21.856 105.479 22.8693 105.479 24V30.368C105.479 30.7307 105.437 31.0613 105.351 31.36C105.287 31.6373 105.127 31.8613 104.871 32.032C104.615 32.2027 104.178 32.288 103.559 32.288C102.962 32.288 102.525 32.192 102.247 32C101.97 31.8293 101.799 31.6053 101.735 31.328C101.671 31.0293 101.639 30.6987 101.639 30.336V23.968C101.639 23.2 101.501 22.5387 101.223 21.984C100.967 21.4293 100.583 21.0027 100.071 20.704C99.5806 20.4053 98.9513 20.256 98.1833 20.256C97.4366 20.256 96.7859 20.416 96.2313 20.736C95.6766 21.0347 95.2499 21.4613 94.9513 22.016C94.6526 22.5707 94.5033 23.2213 94.5033 23.968V30.368C94.5033 30.7307 94.4713 31.0613 94.4073 31.36C94.3433 31.6373 94.1726 31.8613 93.8953 32.032C93.6393 32.2027 93.2019 32.288 92.5833 32.288ZM110.906 32.32C110.308 32.32 109.871 32.224 109.594 32.032C109.316 31.8613 109.146 31.6267 109.082 31.328C109.018 31.0293 108.986 30.6987 108.986 30.336V11.872C108.986 11.1467 109.124 10.6453 109.402 10.368C109.7 10.0907 110.234 9.952 111.002 9.952H123.482C123.844 9.952 124.164 9.99467 124.442 10.08C124.719 10.144 124.943 10.3147 125.114 10.592C125.284 10.848 125.37 11.2853 125.37 11.904C125.37 12.5013 125.274 12.9387 125.082 13.216C124.911 13.4933 124.676 13.664 124.378 13.728C124.1 13.792 123.78 13.824 123.418 13.824H112.858V19.2H120.122C120.484 19.2 120.794 19.2427 121.05 19.328C121.327 19.392 121.53 19.552 121.658 19.808C121.807 20.0427 121.882 20.4373 121.882 20.992C121.882 21.504 121.807 21.888 121.658 22.144C121.508 22.3787 121.295 22.528 121.018 22.592C120.762 22.6347 120.452 22.656 120.09 22.656H112.858V30.368C112.858 30.7307 112.815 31.0613 112.73 31.36C112.666 31.6373 112.495 31.8613 112.218 32.032C111.94 32.224 111.503 32.32 110.906 32.32ZM133.223 32.288C132.242 32.288 131.335 32.1173 130.503 31.776C129.693 31.4133 128.978 30.9013 128.359 30.24C127.741 29.5787 127.261 28.7893 126.919 27.872C126.578 26.9547 126.407 25.9413 126.407 24.832V18.464C126.407 18.1013 126.439 17.7813 126.503 17.504C126.567 17.2053 126.738 16.9707 127.015 16.8C127.293 16.6293 127.719 16.544 128.295 16.544C128.914 16.544 129.351 16.6293 129.607 16.8C129.885 16.9707 130.055 17.2053 130.119 17.504C130.183 17.8027 130.215 18.1333 130.215 18.496V24.832C130.215 25.6 130.343 26.2613 130.599 26.816C130.877 27.3707 131.271 27.808 131.783 28.128C132.295 28.4267 132.925 28.576 133.671 28.576C134.439 28.576 135.09 28.4267 135.623 28.128C136.178 27.808 136.605 27.3707 136.903 26.816C137.202 26.24 137.351 25.5787 137.351 24.832V18.432C137.351 18.0693 137.383 17.7493 137.447 17.472C137.511 17.1733 137.682 16.9493 137.959 16.8C138.237 16.6293 138.674 16.544 139.271 16.544C139.869 16.544 140.295 16.6293 140.551 16.8C140.807 16.9707 140.967 17.2053 141.031 17.504C141.117 17.8027 141.159 18.1227 141.159 18.464V30.464C141.159 30.784 141.117 31.0827 141.031 31.36C140.967 31.6373 140.797 31.8613 140.519 32.032C140.263 32.2027 139.837 32.288 139.239 32.288C138.813 32.288 138.471 32.2347 138.215 32.128C137.981 32.0427 137.799 31.9253 137.671 31.776C137.565 31.6053 137.49 31.4347 137.447 31.264C137.426 31.0933 137.415 30.9227 137.415 30.752L137.671 29.888C137.543 30.08 137.351 30.3147 137.095 30.592C136.839 30.848 136.519 31.1147 136.135 31.392C135.773 31.648 135.346 31.8613 134.855 32.032C134.365 32.2027 133.821 32.288 133.223 32.288ZM149.792 32.512C149.238 32.512 148.651 32.448 148.032 32.32C147.414 32.2133 146.816 32.0533 146.24 31.84C145.664 31.6053 145.163 31.3387 144.736 31.04C144.331 30.72 144.075 30.368 143.968 29.984C143.883 29.7707 143.851 29.568 143.872 29.376C143.894 29.1627 143.958 28.9493 144.064 28.736C144.171 28.5013 144.331 28.2667 144.544 28.032C144.736 27.7973 144.928 27.6693 145.12 27.648C145.334 27.6053 145.6 27.6693 145.92 27.84C146.198 27.9467 146.496 28.0853 146.816 28.256C147.158 28.4267 147.499 28.5973 147.84 28.768C148.203 28.9387 148.566 29.0773 148.928 29.184C149.312 29.2907 149.686 29.344 150.048 29.344C150.838 29.344 151.467 29.216 151.936 28.96C152.406 28.6827 152.64 28.2987 152.64 27.808C152.64 27.5307 152.566 27.2853 152.416 27.072C152.267 26.8587 152.064 26.688 151.808 26.56C151.574 26.4107 151.286 26.2827 150.944 26.176C150.624 26.048 150.272 25.9413 149.888 25.856C149.526 25.7493 149.142 25.632 148.736 25.504C148.203 25.3547 147.67 25.1733 147.136 24.96C146.603 24.7467 146.123 24.4693 145.696 24.128C145.291 23.7867 144.96 23.36 144.704 22.848C144.448 22.336 144.32 21.696 144.32 20.928C144.32 19.968 144.544 19.1573 144.992 18.496C145.462 17.8133 146.134 17.2907 147.008 16.928C147.883 16.5653 148.939 16.384 150.176 16.384C150.603 16.384 151.008 16.416 151.392 16.48C151.798 16.544 152.182 16.64 152.544 16.768C152.928 16.8747 153.291 17.0133 153.632 17.184C153.995 17.3547 154.336 17.5467 154.656 17.76C155.19 18.0587 155.467 18.4107 155.488 18.816C155.51 19.2 155.36 19.616 155.04 20.064C154.806 20.3627 154.571 20.576 154.336 20.704C154.102 20.8107 153.856 20.8107 153.6 20.704C153.259 20.5333 152.886 20.352 152.48 20.16C152.096 19.9467 151.691 19.7653 151.264 19.616C150.859 19.4667 150.432 19.392 149.984 19.392C149.558 19.392 149.174 19.456 148.832 19.584C148.491 19.712 148.235 19.8933 148.064 20.128C147.894 20.3627 147.808 20.64 147.808 20.96C147.808 21.2587 147.894 21.504 148.064 21.696C148.235 21.888 148.459 22.048 148.736 22.176C149.014 22.304 149.344 22.4213 149.728 22.528C150.112 22.6133 150.518 22.6987 150.944 22.784C151.542 22.912 152.15 23.072 152.768 23.264C153.387 23.456 153.952 23.7227 154.464 24.064C154.998 24.4053 155.424 24.864 155.744 25.44C156.064 25.9947 156.224 26.72 156.224 27.616C156.224 29.1733 155.648 30.3787 154.496 31.232C153.366 32.0853 151.798 32.512 149.792 32.512ZM161.056 32.32C160.48 32.32 160.053 32.224 159.776 32.032C159.498 31.8613 159.328 31.6373 159.264 31.36C159.2 31.0613 159.168 30.7307 159.168 30.368V18.464C159.168 18.1227 159.2 17.8133 159.264 17.536C159.349 17.2373 159.52 17.0027 159.776 16.832C160.053 16.6613 160.49 16.576 161.088 16.576C161.685 16.576 162.112 16.6613 162.368 16.832C162.645 17.0027 162.816 17.2373 162.88 17.536C162.944 17.8347 162.976 18.1653 162.976 18.528V30.4C162.976 30.7627 162.944 31.0933 162.88 31.392C162.816 31.6693 162.645 31.8933 162.368 32.064C162.112 32.2347 161.674 32.32 161.056 32.32ZM161.056 13.472C160.437 13.472 159.978 13.3867 159.68 13.216C159.402 13.024 159.221 12.768 159.136 12.448C159.072 12.128 159.04 11.776 159.04 11.392C159.04 10.9867 159.072 10.6347 159.136 10.336C159.221 10.0373 159.413 9.80267 159.712 9.632C160.01 9.44 160.469 9.344 161.088 9.344C161.728 9.344 162.186 9.44 162.464 9.632C162.741 9.824 162.922 10.08 163.008 10.4C163.093 10.6987 163.136 11.0507 163.136 11.456C163.136 11.8187 163.093 12.16 163.008 12.48C162.922 12.8 162.741 13.0453 162.464 13.216C162.186 13.3867 161.717 13.472 161.056 13.472ZM173.68 32.512C172.656 32.512 171.654 32.32 170.672 31.936C169.712 31.5307 168.838 30.9653 168.048 30.24C167.28 29.5147 166.662 28.6613 166.192 27.68C165.744 26.6987 165.52 25.6213 165.52 24.448C165.52 23.3173 165.734 22.2613 166.16 21.28C166.587 20.2987 167.174 19.4347 167.92 18.688C168.667 17.9413 169.52 17.3653 170.48 16.96C171.462 16.5333 172.507 16.32 173.616 16.32C175.11 16.32 176.464 16.6827 177.68 17.408C178.896 18.112 179.867 19.072 180.592 20.288C181.318 21.504 181.68 22.88 181.68 24.416C181.68 25.632 181.456 26.7413 181.008 27.744C180.56 28.7253 179.952 29.5787 179.184 30.304C178.416 31.008 177.552 31.552 176.592 31.936C175.654 32.32 174.683 32.512 173.68 32.512ZM173.616 28.736C174.32 28.736 174.992 28.5653 175.632 28.224C176.294 27.8613 176.827 27.3493 177.232 26.688C177.659 26.0267 177.872 25.248 177.872 24.352C177.872 23.52 177.68 22.784 177.296 22.144C176.934 21.504 176.432 21.0027 175.792 20.64C175.152 20.2773 174.416 20.096 173.584 20.096C172.795 20.096 172.08 20.288 171.44 20.672C170.8 21.0347 170.288 21.5467 169.904 22.208C169.542 22.848 169.36 23.5733 169.36 24.384C169.36 25.28 169.563 26.0587 169.968 26.72C170.374 27.36 170.896 27.8613 171.536 28.224C172.198 28.5653 172.891 28.736 173.616 28.736ZM186.083 32.288C185.507 32.288 185.081 32.192 184.803 32C184.547 31.8293 184.387 31.6053 184.323 31.328C184.259 31.0293 184.227 30.6987 184.227 30.336V18.368C184.227 18.0267 184.259 17.7173 184.323 17.44C184.387 17.1627 184.558 16.9493 184.835 16.8C185.113 16.6293 185.539 16.544 186.115 16.544C186.627 16.544 187.011 16.608 187.267 16.736C187.523 16.864 187.694 17.024 187.779 17.216C187.865 17.408 187.907 17.6 187.907 17.792C187.929 17.984 187.95 18.1333 187.971 18.24L187.843 19.264C187.971 18.9227 188.185 18.592 188.483 18.272C188.782 17.952 189.145 17.664 189.571 17.408C189.998 17.1307 190.457 16.9173 190.947 16.768C191.459 16.5973 191.982 16.512 192.515 16.512C193.518 16.512 194.414 16.6933 195.203 17.056C195.993 17.4187 196.665 17.9307 197.219 18.592C197.795 19.2533 198.233 20.0427 198.531 20.96C198.83 21.856 198.979 22.8693 198.979 24V30.368C198.979 30.7307 198.937 31.0613 198.851 31.36C198.787 31.6373 198.627 31.8613 198.371 32.032C198.115 32.2027 197.678 32.288 197.059 32.288C196.462 32.288 196.025 32.192 195.747 32C195.47 31.8293 195.299 31.6053 195.235 31.328C195.171 31.0293 195.139 30.6987 195.139 30.336V23.968C195.139 23.2 195.001 22.5387 194.723 21.984C194.467 21.4293 194.083 21.0027 193.571 20.704C193.081 20.4053 192.451 20.256 191.683 20.256C190.937 20.256 190.286 20.416 189.731 20.736C189.177 21.0347 188.75 21.4613 188.451 22.016C188.153 22.5707 188.003 23.2213 188.003 23.968V30.368C188.003 30.7307 187.971 31.0613 187.907 31.36C187.843 31.6373 187.673 31.8613 187.395 32.032C187.139 32.2027 186.702 32.288 186.083 32.288Z" fill="black"/>
</svg>
